<mxfile host="Electron" agent="Mozilla/5.0 (Windows NT 10.0; Win64; x64) AppleWebKit/537.36 (KHTML, like Gecko) draw.io/24.7.17 Chrome/128.0.6613.36 Electron/32.0.1 Safari/537.36" version="24.7.17">
  <diagram name="Seite-1" id="xKLc5yHmknXGZXs7xyta">
    <mxGraphModel dx="1434" dy="836" grid="1" gridSize="10" guides="1" tooltips="1" connect="1" arrows="1" fold="1" page="1" pageScale="1" pageWidth="827" pageHeight="1169" math="0" shadow="0">
      <root>
        <mxCell id="0" />
        <mxCell id="1" parent="0" />
        <mxCell id="SP9nY_1DTBUGd0OCc6NQ-1" value="Studenten" style="rounded=0;whiteSpace=wrap;html=1;" parent="1" vertex="1">
          <mxGeometry x="990" y="560" width="120" height="60" as="geometry" />
        </mxCell>
        <mxCell id="SP9nY_1DTBUGd0OCc6NQ-2" value="Professoren" style="rounded=0;whiteSpace=wrap;html=1;" parent="1" vertex="1">
          <mxGeometry x="210" y="260" width="120" height="60" as="geometry" />
        </mxCell>
        <mxCell id="SP9nY_1DTBUGd0OCc6NQ-3" value="Assistenten" style="rounded=0;whiteSpace=wrap;html=1;" parent="1" vertex="1">
          <mxGeometry x="210" y="460" width="120" height="60" as="geometry" />
        </mxCell>
        <mxCell id="SP9nY_1DTBUGd0OCc6NQ-4" value="Räume" style="rounded=0;whiteSpace=wrap;html=1;" parent="1" vertex="1">
          <mxGeometry x="580" y="260" width="120" height="60" as="geometry" />
        </mxCell>
        <mxCell id="SP9nY_1DTBUGd0OCc6NQ-5" value="Prüfungen" style="rounded=0;whiteSpace=wrap;html=1;" parent="1" vertex="1">
          <mxGeometry x="580" y="695" width="120" height="60" as="geometry" />
        </mxCell>
        <mxCell id="SP9nY_1DTBUGd0OCc6NQ-6" value="Vorlesungen" style="rounded=0;whiteSpace=wrap;html=1;" parent="1" vertex="1">
          <mxGeometry x="990" y="260" width="120" height="60" as="geometry" />
        </mxCell>
        <mxCell id="SP9nY_1DTBUGd0OCc6NQ-7" value="VorlesungsNr" style="ellipse;whiteSpace=wrap;html=1;align=center;fontStyle=4;" parent="1" vertex="1">
          <mxGeometry x="980" y="90" width="140" height="50" as="geometry" />
        </mxCell>
        <mxCell id="SP9nY_1DTBUGd0OCc6NQ-8" value="Bezeichnung" style="ellipse;whiteSpace=wrap;html=1;align=center;" parent="1" vertex="1">
          <mxGeometry x="1150" y="130" width="120" height="50" as="geometry" />
        </mxCell>
        <mxCell id="SP9nY_1DTBUGd0OCc6NQ-11" value="" style="endArrow=none;html=1;rounded=0;exitX=0.5;exitY=1;exitDx=0;exitDy=0;entryX=0.5;entryY=0;entryDx=0;entryDy=0;" parent="1" source="SP9nY_1DTBUGd0OCc6NQ-7" target="SP9nY_1DTBUGd0OCc6NQ-6" edge="1">
          <mxGeometry relative="1" as="geometry">
            <mxPoint x="490" y="480" as="sourcePoint" />
            <mxPoint x="650" y="480" as="targetPoint" />
          </mxGeometry>
        </mxCell>
        <mxCell id="SP9nY_1DTBUGd0OCc6NQ-12" value="" style="endArrow=none;html=1;rounded=0;exitX=0.5;exitY=1;exitDx=0;exitDy=0;entryX=0.5;entryY=0;entryDx=0;entryDy=0;" parent="1" source="SP9nY_1DTBUGd0OCc6NQ-8" target="SP9nY_1DTBUGd0OCc6NQ-6" edge="1">
          <mxGeometry relative="1" as="geometry">
            <mxPoint x="1190" y="300" as="sourcePoint" />
            <mxPoint x="1350" y="300" as="targetPoint" />
          </mxGeometry>
        </mxCell>
        <mxCell id="SP9nY_1DTBUGd0OCc6NQ-13" value="Vorname" style="ellipse;whiteSpace=wrap;html=1;align=center;" parent="1" vertex="1">
          <mxGeometry x="190" y="160" width="100" height="40" as="geometry" />
        </mxCell>
        <mxCell id="SP9nY_1DTBUGd0OCc6NQ-14" value="Nachname" style="ellipse;whiteSpace=wrap;html=1;align=center;" parent="1" vertex="1">
          <mxGeometry x="70" y="200" width="100" height="40" as="geometry" />
        </mxCell>
        <mxCell id="SP9nY_1DTBUGd0OCc6NQ-15" value="Matrikelnummer" style="ellipse;whiteSpace=wrap;html=1;align=center;fontStyle=4;" parent="1" vertex="1">
          <mxGeometry x="1087" y="665" width="120" height="50" as="geometry" />
        </mxCell>
        <mxCell id="SP9nY_1DTBUGd0OCc6NQ-16" value="Vorname" style="ellipse;whiteSpace=wrap;html=1;align=center;" parent="1" vertex="1">
          <mxGeometry x="930" y="695" width="100" height="40" as="geometry" />
        </mxCell>
        <mxCell id="SP9nY_1DTBUGd0OCc6NQ-17" value="Nachname" style="ellipse;whiteSpace=wrap;html=1;align=center;" parent="1" vertex="1">
          <mxGeometry x="860" y="645" width="100" height="40" as="geometry" />
        </mxCell>
        <mxCell id="SP9nY_1DTBUGd0OCc6NQ-18" value="Eintrittsdatum" style="ellipse;whiteSpace=wrap;html=1;align=center;" parent="1" vertex="1">
          <mxGeometry x="1220" y="615" width="100" height="40" as="geometry" />
        </mxCell>
        <mxCell id="SP9nY_1DTBUGd0OCc6NQ-19" value="Geburtsdatum" style="ellipse;whiteSpace=wrap;html=1;align=center;" parent="1" vertex="1">
          <mxGeometry x="224" y="600" width="100" height="40" as="geometry" />
        </mxCell>
        <mxCell id="SP9nY_1DTBUGd0OCc6NQ-21" value="Notengebung" style="ellipse;whiteSpace=wrap;html=1;align=center;" parent="1" vertex="1">
          <mxGeometry x="590" y="860" width="100" height="40" as="geometry" />
        </mxCell>
        <mxCell id="SP9nY_1DTBUGd0OCc6NQ-22" value="Datum" style="ellipse;whiteSpace=wrap;html=1;align=center;" parent="1" vertex="1">
          <mxGeometry x="740" y="840" width="100" height="40" as="geometry" />
        </mxCell>
        <mxCell id="SP9nY_1DTBUGd0OCc6NQ-23" value="Vorname" style="ellipse;whiteSpace=wrap;html=1;align=center;" parent="1" vertex="1">
          <mxGeometry x="104" y="540" width="100" height="40" as="geometry" />
        </mxCell>
        <mxCell id="SP9nY_1DTBUGd0OCc6NQ-24" value="Nachname" style="ellipse;whiteSpace=wrap;html=1;align=center;" parent="1" vertex="1">
          <mxGeometry x="314" y="550" width="100" height="40" as="geometry" />
        </mxCell>
        <mxCell id="SP9nY_1DTBUGd0OCc6NQ-25" value="" style="endArrow=none;html=1;rounded=0;exitX=0.5;exitY=1;exitDx=0;exitDy=0;entryX=0.5;entryY=0;entryDx=0;entryDy=0;" parent="1" source="SP9nY_1DTBUGd0OCc6NQ-13" target="SP9nY_1DTBUGd0OCc6NQ-2" edge="1">
          <mxGeometry relative="1" as="geometry">
            <mxPoint x="380" y="390" as="sourcePoint" />
            <mxPoint x="540" y="390" as="targetPoint" />
          </mxGeometry>
        </mxCell>
        <mxCell id="SP9nY_1DTBUGd0OCc6NQ-26" value="" style="endArrow=none;html=1;rounded=0;exitX=1;exitY=0.5;exitDx=0;exitDy=0;entryX=0.5;entryY=0;entryDx=0;entryDy=0;" parent="1" source="SP9nY_1DTBUGd0OCc6NQ-14" target="SP9nY_1DTBUGd0OCc6NQ-2" edge="1">
          <mxGeometry relative="1" as="geometry">
            <mxPoint x="140" y="300" as="sourcePoint" />
            <mxPoint x="300" y="300" as="targetPoint" />
          </mxGeometry>
        </mxCell>
        <mxCell id="SP9nY_1DTBUGd0OCc6NQ-27" value="" style="endArrow=none;html=1;rounded=0;exitX=0.5;exitY=1;exitDx=0;exitDy=0;entryX=0.5;entryY=0;entryDx=0;entryDy=0;" parent="1" source="SP9nY_1DTBUGd0OCc6NQ-5" target="SP9nY_1DTBUGd0OCc6NQ-21" edge="1">
          <mxGeometry relative="1" as="geometry">
            <mxPoint x="390" y="515" as="sourcePoint" />
            <mxPoint x="550" y="515" as="targetPoint" />
          </mxGeometry>
        </mxCell>
        <mxCell id="SP9nY_1DTBUGd0OCc6NQ-28" value="" style="endArrow=none;html=1;rounded=0;exitX=0.5;exitY=1;exitDx=0;exitDy=0;entryX=0;entryY=0;entryDx=0;entryDy=0;" parent="1" source="SP9nY_1DTBUGd0OCc6NQ-5" target="SP9nY_1DTBUGd0OCc6NQ-22" edge="1">
          <mxGeometry relative="1" as="geometry">
            <mxPoint x="760" y="715" as="sourcePoint" />
            <mxPoint x="920" y="715" as="targetPoint" />
          </mxGeometry>
        </mxCell>
        <mxCell id="SP9nY_1DTBUGd0OCc6NQ-29" value="" style="endArrow=none;html=1;rounded=0;exitX=0.5;exitY=1;exitDx=0;exitDy=0;entryX=0.5;entryY=0;entryDx=0;entryDy=0;" parent="1" source="SP9nY_1DTBUGd0OCc6NQ-3" target="SP9nY_1DTBUGd0OCc6NQ-24" edge="1">
          <mxGeometry relative="1" as="geometry">
            <mxPoint x="404" y="520" as="sourcePoint" />
            <mxPoint x="564" y="520" as="targetPoint" />
          </mxGeometry>
        </mxCell>
        <mxCell id="SP9nY_1DTBUGd0OCc6NQ-30" value="" style="endArrow=none;html=1;rounded=0;exitX=0.5;exitY=1;exitDx=0;exitDy=0;entryX=0.5;entryY=0;entryDx=0;entryDy=0;" parent="1" source="SP9nY_1DTBUGd0OCc6NQ-3" target="SP9nY_1DTBUGd0OCc6NQ-19" edge="1">
          <mxGeometry relative="1" as="geometry">
            <mxPoint x="284" y="640" as="sourcePoint" />
            <mxPoint x="444" y="640" as="targetPoint" />
          </mxGeometry>
        </mxCell>
        <mxCell id="SP9nY_1DTBUGd0OCc6NQ-31" value="" style="endArrow=none;html=1;rounded=0;exitX=1;exitY=0.5;exitDx=0;exitDy=0;entryX=0.5;entryY=1;entryDx=0;entryDy=0;" parent="1" source="SP9nY_1DTBUGd0OCc6NQ-23" target="SP9nY_1DTBUGd0OCc6NQ-3" edge="1">
          <mxGeometry relative="1" as="geometry">
            <mxPoint x="194" y="410" as="sourcePoint" />
            <mxPoint x="354" y="410" as="targetPoint" />
          </mxGeometry>
        </mxCell>
        <mxCell id="SP9nY_1DTBUGd0OCc6NQ-32" value="" style="endArrow=none;html=1;rounded=0;exitX=1;exitY=0;exitDx=0;exitDy=0;entryX=0.25;entryY=1;entryDx=0;entryDy=0;" parent="1" source="SP9nY_1DTBUGd0OCc6NQ-17" target="SP9nY_1DTBUGd0OCc6NQ-1" edge="1">
          <mxGeometry relative="1" as="geometry">
            <mxPoint x="970" y="385" as="sourcePoint" />
            <mxPoint x="1130" y="385" as="targetPoint" />
          </mxGeometry>
        </mxCell>
        <mxCell id="SP9nY_1DTBUGd0OCc6NQ-33" value="" style="endArrow=none;html=1;rounded=0;exitX=0.5;exitY=0;exitDx=0;exitDy=0;entryX=0.5;entryY=1;entryDx=0;entryDy=0;" parent="1" source="SP9nY_1DTBUGd0OCc6NQ-16" target="SP9nY_1DTBUGd0OCc6NQ-1" edge="1">
          <mxGeometry relative="1" as="geometry">
            <mxPoint x="920" y="465" as="sourcePoint" />
            <mxPoint x="1060" y="635" as="targetPoint" />
          </mxGeometry>
        </mxCell>
        <mxCell id="SP9nY_1DTBUGd0OCc6NQ-34" value="" style="endArrow=none;html=1;rounded=0;exitX=0.5;exitY=0;exitDx=0;exitDy=0;entryX=0.75;entryY=1;entryDx=0;entryDy=0;" parent="1" source="SP9nY_1DTBUGd0OCc6NQ-15" target="SP9nY_1DTBUGd0OCc6NQ-1" edge="1">
          <mxGeometry relative="1" as="geometry">
            <mxPoint x="1240" y="495" as="sourcePoint" />
            <mxPoint x="1400" y="495" as="targetPoint" />
          </mxGeometry>
        </mxCell>
        <mxCell id="SP9nY_1DTBUGd0OCc6NQ-35" value="" style="endArrow=none;html=1;rounded=0;exitX=1;exitY=0.5;exitDx=0;exitDy=0;entryX=0;entryY=0;entryDx=0;entryDy=0;" parent="1" source="SP9nY_1DTBUGd0OCc6NQ-1" target="SP9nY_1DTBUGd0OCc6NQ-18" edge="1">
          <mxGeometry relative="1" as="geometry">
            <mxPoint x="1120" y="520" as="sourcePoint" />
            <mxPoint x="1360" y="600" as="targetPoint" />
          </mxGeometry>
        </mxCell>
        <mxCell id="SP9nY_1DTBUGd0OCc6NQ-36" value="ProfessorenID" style="ellipse;whiteSpace=wrap;html=1;align=center;fontStyle=4;" parent="1" vertex="1">
          <mxGeometry x="50" y="270" width="100" height="40" as="geometry" />
        </mxCell>
        <mxCell id="SP9nY_1DTBUGd0OCc6NQ-37" value="AssistentenID" style="ellipse;whiteSpace=wrap;html=1;align=center;fontStyle=4;" parent="1" vertex="1">
          <mxGeometry x="114" y="630" width="100" height="40" as="geometry" />
        </mxCell>
        <mxCell id="SP9nY_1DTBUGd0OCc6NQ-38" value="RaumID" style="ellipse;whiteSpace=wrap;html=1;align=center;fontStyle=4;" parent="1" vertex="1">
          <mxGeometry x="590" y="150" width="100" height="40" as="geometry" />
        </mxCell>
        <mxCell id="SP9nY_1DTBUGd0OCc6NQ-39" value="PrüfungsID" style="ellipse;whiteSpace=wrap;html=1;align=center;fontStyle=4;" parent="1" vertex="1">
          <mxGeometry x="450" y="850" width="100" height="40" as="geometry" />
        </mxCell>
        <mxCell id="SP9nY_1DTBUGd0OCc6NQ-40" value="" style="endArrow=none;html=1;rounded=0;exitX=0.5;exitY=0;exitDx=0;exitDy=0;entryX=0.5;entryY=1;entryDx=0;entryDy=0;" parent="1" source="SP9nY_1DTBUGd0OCc6NQ-39" target="SP9nY_1DTBUGd0OCc6NQ-5" edge="1">
          <mxGeometry relative="1" as="geometry">
            <mxPoint x="470" y="725" as="sourcePoint" />
            <mxPoint x="630" y="725" as="targetPoint" />
          </mxGeometry>
        </mxCell>
        <mxCell id="SP9nY_1DTBUGd0OCc6NQ-41" value="" style="endArrow=none;html=1;rounded=0;exitX=0.5;exitY=1;exitDx=0;exitDy=0;entryX=0.5;entryY=0;entryDx=0;entryDy=0;" parent="1" source="SP9nY_1DTBUGd0OCc6NQ-38" target="SP9nY_1DTBUGd0OCc6NQ-4" edge="1">
          <mxGeometry relative="1" as="geometry">
            <mxPoint x="580" y="460" as="sourcePoint" />
            <mxPoint x="740" y="460" as="targetPoint" />
          </mxGeometry>
        </mxCell>
        <mxCell id="SP9nY_1DTBUGd0OCc6NQ-43" value="" style="endArrow=none;html=1;rounded=0;exitX=0.5;exitY=0;exitDx=0;exitDy=0;entryX=0.5;entryY=1;entryDx=0;entryDy=0;" parent="1" source="SP9nY_1DTBUGd0OCc6NQ-37" target="SP9nY_1DTBUGd0OCc6NQ-3" edge="1">
          <mxGeometry relative="1" as="geometry">
            <mxPoint x="284" y="700" as="sourcePoint" />
            <mxPoint x="444" y="700" as="targetPoint" />
          </mxGeometry>
        </mxCell>
        <mxCell id="SP9nY_1DTBUGd0OCc6NQ-44" value="" style="endArrow=none;html=1;rounded=0;exitX=1;exitY=0.5;exitDx=0;exitDy=0;entryX=0;entryY=0.5;entryDx=0;entryDy=0;" parent="1" source="SP9nY_1DTBUGd0OCc6NQ-36" target="SP9nY_1DTBUGd0OCc6NQ-2" edge="1">
          <mxGeometry relative="1" as="geometry">
            <mxPoint x="230" y="470" as="sourcePoint" />
            <mxPoint x="390" y="470" as="targetPoint" />
          </mxGeometry>
        </mxCell>
        <mxCell id="SP9nY_1DTBUGd0OCc6NQ-45" value="findet statt" style="shape=rhombus;perimeter=rhombusPerimeter;whiteSpace=wrap;html=1;align=center;" parent="1" vertex="1">
          <mxGeometry x="770" y="260" width="120" height="60" as="geometry" />
        </mxCell>
        <mxCell id="SP9nY_1DTBUGd0OCc6NQ-46" value="1" style="endArrow=none;html=1;rounded=0;exitX=1;exitY=0.5;exitDx=0;exitDy=0;entryX=0;entryY=0.5;entryDx=0;entryDy=0;" parent="1" source="SP9nY_1DTBUGd0OCc6NQ-4" target="SP9nY_1DTBUGd0OCc6NQ-45" edge="1">
          <mxGeometry x="-0.6" relative="1" as="geometry">
            <mxPoint x="910" y="260" as="sourcePoint" />
            <mxPoint x="1070" y="260" as="targetPoint" />
            <mxPoint as="offset" />
          </mxGeometry>
        </mxCell>
        <mxCell id="SP9nY_1DTBUGd0OCc6NQ-47" value="1" style="endArrow=none;html=1;rounded=0;exitX=1;exitY=0.5;exitDx=0;exitDy=0;entryX=0;entryY=0.5;entryDx=0;entryDy=0;" parent="1" source="SP9nY_1DTBUGd0OCc6NQ-45" target="SP9nY_1DTBUGd0OCc6NQ-6" edge="1">
          <mxGeometry x="0.4545" relative="1" as="geometry">
            <mxPoint x="780" y="390" as="sourcePoint" />
            <mxPoint x="940" y="390" as="targetPoint" />
            <mxPoint as="offset" />
          </mxGeometry>
        </mxCell>
        <mxCell id="SP9nY_1DTBUGd0OCc6NQ-48" value="unterrichtet" style="shape=rhombus;perimeter=rhombusPerimeter;whiteSpace=wrap;html=1;align=center;" parent="1" vertex="1">
          <mxGeometry x="390" y="260" width="120" height="60" as="geometry" />
        </mxCell>
        <mxCell id="SP9nY_1DTBUGd0OCc6NQ-49" value="1" style="endArrow=none;html=1;rounded=0;exitX=1;exitY=0.5;exitDx=0;exitDy=0;entryX=0;entryY=0.5;entryDx=0;entryDy=0;" parent="1" source="SP9nY_1DTBUGd0OCc6NQ-2" target="SP9nY_1DTBUGd0OCc6NQ-48" edge="1">
          <mxGeometry x="-0.3333" relative="1" as="geometry">
            <mxPoint x="360" y="340" as="sourcePoint" />
            <mxPoint x="520" y="340" as="targetPoint" />
            <mxPoint as="offset" />
          </mxGeometry>
        </mxCell>
        <mxCell id="SP9nY_1DTBUGd0OCc6NQ-50" value="1" style="endArrow=none;html=1;rounded=0;exitX=1;exitY=0.5;exitDx=0;exitDy=0;entryX=0;entryY=0.5;entryDx=0;entryDy=0;" parent="1" source="SP9nY_1DTBUGd0OCc6NQ-48" target="SP9nY_1DTBUGd0OCc6NQ-4" edge="1">
          <mxGeometry x="0.4286" relative="1" as="geometry">
            <mxPoint x="440" y="350" as="sourcePoint" />
            <mxPoint x="600" y="350" as="targetPoint" />
            <mxPoint as="offset" />
          </mxGeometry>
        </mxCell>
        <mxCell id="SP9nY_1DTBUGd0OCc6NQ-51" value="arbeitet für" style="shape=rhombus;perimeter=rhombusPerimeter;whiteSpace=wrap;html=1;align=center;" parent="1" vertex="1">
          <mxGeometry x="210" y="360" width="120" height="60" as="geometry" />
        </mxCell>
        <mxCell id="SP9nY_1DTBUGd0OCc6NQ-52" value="1" style="endArrow=none;html=1;rounded=0;exitX=0.5;exitY=1;exitDx=0;exitDy=0;entryX=0.5;entryY=0;entryDx=0;entryDy=0;" parent="1" source="SP9nY_1DTBUGd0OCc6NQ-2" target="SP9nY_1DTBUGd0OCc6NQ-51" edge="1">
          <mxGeometry x="-0.5" relative="1" as="geometry">
            <mxPoint x="410" y="350" as="sourcePoint" />
            <mxPoint x="570" y="350" as="targetPoint" />
            <mxPoint as="offset" />
          </mxGeometry>
        </mxCell>
        <mxCell id="SP9nY_1DTBUGd0OCc6NQ-53" value="m" style="endArrow=none;html=1;rounded=0;exitX=0.5;exitY=1;exitDx=0;exitDy=0;entryX=0.5;entryY=0;entryDx=0;entryDy=0;" parent="1" source="SP9nY_1DTBUGd0OCc6NQ-51" target="SP9nY_1DTBUGd0OCc6NQ-3" edge="1">
          <mxGeometry relative="1" as="geometry">
            <mxPoint x="390" y="420" as="sourcePoint" />
            <mxPoint x="550" y="420" as="targetPoint" />
            <mxPoint as="offset" />
          </mxGeometry>
        </mxCell>
        <mxCell id="SP9nY_1DTBUGd0OCc6NQ-55" value="besucht" style="shape=rhombus;perimeter=rhombusPerimeter;whiteSpace=wrap;html=1;align=center;" parent="1" vertex="1">
          <mxGeometry x="990" y="410" width="120" height="60" as="geometry" />
        </mxCell>
        <mxCell id="SP9nY_1DTBUGd0OCc6NQ-56" value="m" style="endArrow=none;html=1;rounded=0;exitX=0.5;exitY=1;exitDx=0;exitDy=0;entryX=0.5;entryY=0;entryDx=0;entryDy=0;" parent="1" source="SP9nY_1DTBUGd0OCc6NQ-6" target="SP9nY_1DTBUGd0OCc6NQ-55" edge="1">
          <mxGeometry x="-0.7778" relative="1" as="geometry">
            <mxPoint x="1150" y="390" as="sourcePoint" />
            <mxPoint x="1310" y="390" as="targetPoint" />
            <mxPoint as="offset" />
          </mxGeometry>
        </mxCell>
        <mxCell id="SP9nY_1DTBUGd0OCc6NQ-57" value="m" style="endArrow=none;html=1;rounded=0;exitX=0.5;exitY=1;exitDx=0;exitDy=0;entryX=0.5;entryY=0;entryDx=0;entryDy=0;" parent="1" source="SP9nY_1DTBUGd0OCc6NQ-55" target="SP9nY_1DTBUGd0OCc6NQ-1" edge="1">
          <mxGeometry x="0.3333" relative="1" as="geometry">
            <mxPoint x="1120" y="520" as="sourcePoint" />
            <mxPoint x="1280" y="520" as="targetPoint" />
            <mxPoint as="offset" />
          </mxGeometry>
        </mxCell>
        <mxCell id="SP9nY_1DTBUGd0OCc6NQ-58" value="Prüfungen" style="rounded=0;whiteSpace=wrap;html=1;" parent="1" vertex="1">
          <mxGeometry x="580" y="695" width="120" height="60" as="geometry" />
        </mxCell>
        <mxCell id="SP9nY_1DTBUGd0OCc6NQ-59" value="Notengebung" style="ellipse;whiteSpace=wrap;html=1;align=center;" parent="1" vertex="1">
          <mxGeometry x="590" y="860" width="100" height="40" as="geometry" />
        </mxCell>
        <mxCell id="SP9nY_1DTBUGd0OCc6NQ-60" value="Datum" style="ellipse;whiteSpace=wrap;html=1;align=center;" parent="1" vertex="1">
          <mxGeometry x="740" y="840" width="100" height="40" as="geometry" />
        </mxCell>
        <mxCell id="SP9nY_1DTBUGd0OCc6NQ-61" value="" style="endArrow=none;html=1;rounded=0;exitX=0.5;exitY=1;exitDx=0;exitDy=0;entryX=0.5;entryY=0;entryDx=0;entryDy=0;" parent="1" source="SP9nY_1DTBUGd0OCc6NQ-58" target="SP9nY_1DTBUGd0OCc6NQ-59" edge="1">
          <mxGeometry relative="1" as="geometry">
            <mxPoint x="390" y="515" as="sourcePoint" />
            <mxPoint x="550" y="515" as="targetPoint" />
          </mxGeometry>
        </mxCell>
        <mxCell id="SP9nY_1DTBUGd0OCc6NQ-62" value="" style="endArrow=none;html=1;rounded=0;exitX=0.5;exitY=1;exitDx=0;exitDy=0;entryX=0;entryY=0;entryDx=0;entryDy=0;" parent="1" source="SP9nY_1DTBUGd0OCc6NQ-58" target="SP9nY_1DTBUGd0OCc6NQ-60" edge="1">
          <mxGeometry relative="1" as="geometry">
            <mxPoint x="760" y="715" as="sourcePoint" />
            <mxPoint x="920" y="715" as="targetPoint" />
          </mxGeometry>
        </mxCell>
        <mxCell id="wdZ_KvQLlA92_b_JvEta-1" value="findet statt" style="shape=rhombus;perimeter=rhombusPerimeter;whiteSpace=wrap;html=1;align=center;" parent="1" vertex="1">
          <mxGeometry x="580" y="410" width="120" height="60" as="geometry" />
        </mxCell>
        <mxCell id="wdZ_KvQLlA92_b_JvEta-2" value="1" style="endArrow=none;html=1;rounded=0;exitX=0.5;exitY=1;exitDx=0;exitDy=0;entryX=0.5;entryY=0;entryDx=0;entryDy=0;" parent="1" source="SP9nY_1DTBUGd0OCc6NQ-4" target="wdZ_KvQLlA92_b_JvEta-1" edge="1">
          <mxGeometry x="-0.5556" relative="1" as="geometry">
            <mxPoint x="590" y="580" as="sourcePoint" />
            <mxPoint x="750" y="580" as="targetPoint" />
            <mxPoint as="offset" />
          </mxGeometry>
        </mxCell>
        <mxCell id="wdZ_KvQLlA92_b_JvEta-3" value="1" style="endArrow=none;html=1;rounded=0;exitX=0.5;exitY=1;exitDx=0;exitDy=0;entryX=0.5;entryY=0;entryDx=0;entryDy=0;" parent="1" source="wdZ_KvQLlA92_b_JvEta-1" target="SP9nY_1DTBUGd0OCc6NQ-58" edge="1">
          <mxGeometry x="-0.5556" relative="1" as="geometry">
            <mxPoint x="700" y="570" as="sourcePoint" />
            <mxPoint x="860" y="570" as="targetPoint" />
            <mxPoint as="offset" />
          </mxGeometry>
        </mxCell>
        <mxCell id="wdZ_KvQLlA92_b_JvEta-4" value="schreibt" style="shape=rhombus;perimeter=rhombusPerimeter;whiteSpace=wrap;html=1;align=center;" parent="1" vertex="1">
          <mxGeometry x="750" y="560" width="120" height="60" as="geometry" />
        </mxCell>
        <mxCell id="wdZ_KvQLlA92_b_JvEta-5" value="m" style="endArrow=none;html=1;rounded=0;entryX=0;entryY=0.5;entryDx=0;entryDy=0;exitX=1;exitY=0.5;exitDx=0;exitDy=0;" parent="1" source="wdZ_KvQLlA92_b_JvEta-4" target="SP9nY_1DTBUGd0OCc6NQ-1" edge="1">
          <mxGeometry relative="1" as="geometry">
            <mxPoint x="700" y="540" as="sourcePoint" />
            <mxPoint x="860" y="540" as="targetPoint" />
          </mxGeometry>
        </mxCell>
        <mxCell id="wdZ_KvQLlA92_b_JvEta-7" value="1" style="endArrow=none;html=1;rounded=0;exitX=0;exitY=0.5;exitDx=0;exitDy=0;entryX=0.75;entryY=0;entryDx=0;entryDy=0;" parent="1" source="wdZ_KvQLlA92_b_JvEta-4" target="SP9nY_1DTBUGd0OCc6NQ-58" edge="1">
          <mxGeometry relative="1" as="geometry">
            <mxPoint x="750" y="680" as="sourcePoint" />
            <mxPoint x="910" y="680" as="targetPoint" />
          </mxGeometry>
        </mxCell>
        <mxCell id="wdZ_KvQLlA92_b_JvEta-9" value="beaufsichtigt" style="shape=rhombus;perimeter=rhombusPerimeter;whiteSpace=wrap;html=1;align=center;" parent="1" vertex="1">
          <mxGeometry x="450" y="500" width="120" height="60" as="geometry" />
        </mxCell>
        <mxCell id="wdZ_KvQLlA92_b_JvEta-11" value="1" style="endArrow=none;html=1;rounded=0;exitX=1;exitY=0.75;exitDx=0;exitDy=0;entryX=0.5;entryY=0;entryDx=0;entryDy=0;" parent="1" source="SP9nY_1DTBUGd0OCc6NQ-2" target="wdZ_KvQLlA92_b_JvEta-9" edge="1">
          <mxGeometry x="-0.6528" y="-2" relative="1" as="geometry">
            <mxPoint x="370" y="660" as="sourcePoint" />
            <mxPoint x="530" y="660" as="targetPoint" />
            <mxPoint as="offset" />
          </mxGeometry>
        </mxCell>
        <mxCell id="wdZ_KvQLlA92_b_JvEta-12" value="1" style="endArrow=none;html=1;rounded=0;exitX=0.5;exitY=1;exitDx=0;exitDy=0;entryX=0.25;entryY=0;entryDx=0;entryDy=0;" parent="1" source="wdZ_KvQLlA92_b_JvEta-9" target="SP9nY_1DTBUGd0OCc6NQ-58" edge="1">
          <mxGeometry x="0.6191" y="-1" relative="1" as="geometry">
            <mxPoint x="480" y="600" as="sourcePoint" />
            <mxPoint x="640" y="600" as="targetPoint" />
            <mxPoint as="offset" />
          </mxGeometry>
        </mxCell>
        <mxCell id="910SzkIiCYpPQ4U2vYjf-1" value="setzt voraus" style="shape=rhombus;perimeter=rhombusPerimeter;whiteSpace=wrap;html=1;align=center;" vertex="1" parent="1">
          <mxGeometry x="1250" y="260" width="120" height="60" as="geometry" />
        </mxCell>
        <mxCell id="910SzkIiCYpPQ4U2vYjf-2" value="mc" style="endArrow=none;html=1;rounded=0;exitX=1;exitY=0.75;exitDx=0;exitDy=0;entryX=0;entryY=1;entryDx=0;entryDy=0;" edge="1" parent="1" source="SP9nY_1DTBUGd0OCc6NQ-6" target="910SzkIiCYpPQ4U2vYjf-1">
          <mxGeometry width="50" height="50" relative="1" as="geometry">
            <mxPoint x="1430" y="340" as="sourcePoint" />
            <mxPoint x="1480" y="290" as="targetPoint" />
          </mxGeometry>
        </mxCell>
        <mxCell id="910SzkIiCYpPQ4U2vYjf-3" value="mc" style="endArrow=none;html=1;rounded=0;exitX=1;exitY=0.25;exitDx=0;exitDy=0;entryX=0;entryY=0;entryDx=0;entryDy=0;" edge="1" parent="1" source="SP9nY_1DTBUGd0OCc6NQ-6" target="910SzkIiCYpPQ4U2vYjf-1">
          <mxGeometry width="50" height="50" relative="1" as="geometry">
            <mxPoint x="1220" y="420" as="sourcePoint" />
            <mxPoint x="1270" y="370" as="targetPoint" />
          </mxGeometry>
        </mxCell>
      </root>
    </mxGraphModel>
  </diagram>
</mxfile>
